<svg xmlns="http://www.w3.org/2000/svg" xmlns:xlink="http://www.w3.org/1999/xlink" class="httpgd" width="602.00" height="437.00" viewBox="0 0 602.00 437.00">
<defs>
  <style type='text/css'><![CDATA[
    .httpgd line, .httpgd polyline, .httpgd polygon, .httpgd path, .httpgd rect, .httpgd circle {
      fill: none;
      stroke: #000000;
      stroke-linecap: round;
      stroke-linejoin: round;
      stroke-miterlimit: 10.00;
    }
  ]]></style>
<clipPath id="c0"><rect x="0.00" y="0.00" width="602.00" height="437.00"/></clipPath>
<clipPath id="c1"><rect x="59.04" y="59.04" width="512.72" height="304.52"/></clipPath>
<clipPath id="c2"><rect x="0.00" y="0.00" width="602.00" height="437.00"/></clipPath>
<clipPath id="c3"><rect x="59.04" y="59.04" width="512.72" height="304.52"/></clipPath>
</defs>
<rect width="100%" height="100%" style="stroke: none;fill: #FFFFFF;"/>
<g clip-path="url(#c0)">
</g><g clip-path="url(#c1)">
<line x1="82.88" y1="75.64" x2="89.01" y2="82.37" style="stroke-width: 0.75;stroke: #0000FF;"/>
<line x1="100.22" y1="91.06" x2="150.79" y2="117.84" style="stroke-width: 0.75;stroke: #0000FF;"/>
<line x1="162.48" y1="126.05" x2="230.95" y2="188.20" style="stroke-width: 0.75;stroke: #0000FF;"/>
<line x1="242.71" y1="196.27" x2="546.34" y2="349.05" style="stroke-width: 0.75;stroke: #0000FF;"/>
<circle cx="78.03" cy="70.32" r="2.70" style="stroke-width: 0.75;stroke: none;fill: #0000FF;"/>
<circle cx="93.85" cy="87.69" r="2.70" style="stroke-width: 0.75;stroke: none;fill: #0000FF;"/>
<circle cx="157.15" cy="121.21" r="2.70" style="stroke-width: 0.75;stroke: none;fill: #0000FF;"/>
<circle cx="236.28" cy="193.04" r="2.70" style="stroke-width: 0.75;stroke: none;fill: #0000FF;"/>
<circle cx="552.77" cy="352.28" r="2.70" style="stroke-width: 0.75;stroke: none;fill: #0000FF;"/>
</g><g clip-path="url(#c2)">
<line x1="78.03" y1="363.56" x2="552.77" y2="363.56" style="stroke-width: 0.75;"/>
<line x1="78.03" y1="363.56" x2="78.03" y2="370.76" style="stroke-width: 0.75;"/>
<line x1="157.15" y1="363.56" x2="157.15" y2="370.76" style="stroke-width: 0.75;"/>
<line x1="236.28" y1="363.56" x2="236.28" y2="370.76" style="stroke-width: 0.75;"/>
<line x1="315.40" y1="363.56" x2="315.40" y2="370.76" style="stroke-width: 0.75;"/>
<line x1="394.52" y1="363.56" x2="394.52" y2="370.76" style="stroke-width: 0.75;"/>
<line x1="473.65" y1="363.56" x2="473.65" y2="370.76" style="stroke-width: 0.75;"/>
<line x1="552.77" y1="363.56" x2="552.77" y2="370.76" style="stroke-width: 0.75;"/>
<g><text x="78.03" y="389.48" text-anchor="middle" style="font-family: Arial;font-size: 12.00px;" textLength="6.67px" lengthAdjust="spacingAndGlyphs">0</text></g>
<g><text x="157.15" y="389.48" text-anchor="middle" style="font-family: Arial;font-size: 12.00px;" textLength="6.67px" lengthAdjust="spacingAndGlyphs">5</text></g>
<g><text x="236.28" y="389.48" text-anchor="middle" style="font-family: Arial;font-size: 12.00px;" textLength="13.35px" lengthAdjust="spacingAndGlyphs">10</text></g>
<g><text x="315.40" y="389.48" text-anchor="middle" style="font-family: Arial;font-size: 12.00px;" textLength="13.35px" lengthAdjust="spacingAndGlyphs">15</text></g>
<g><text x="394.52" y="389.48" text-anchor="middle" style="font-family: Arial;font-size: 12.00px;" textLength="13.35px" lengthAdjust="spacingAndGlyphs">20</text></g>
<g><text x="473.65" y="389.48" text-anchor="middle" style="font-family: Arial;font-size: 12.00px;" textLength="13.35px" lengthAdjust="spacingAndGlyphs">25</text></g>
<g><text x="552.77" y="389.48" text-anchor="middle" style="font-family: Arial;font-size: 12.00px;" textLength="13.35px" lengthAdjust="spacingAndGlyphs">30</text></g>
<line x1="59.04" y1="344.68" x2="59.04" y2="90.05" style="stroke-width: 0.75;"/>
<line x1="59.04" y1="344.68" x2="51.84" y2="344.68" style="stroke-width: 0.75;"/>
<line x1="59.04" y1="293.75" x2="51.84" y2="293.75" style="stroke-width: 0.75;"/>
<line x1="59.04" y1="242.83" x2="51.84" y2="242.83" style="stroke-width: 0.75;"/>
<line x1="59.04" y1="191.90" x2="51.84" y2="191.90" style="stroke-width: 0.75;"/>
<line x1="59.04" y1="140.97" x2="51.84" y2="140.97" style="stroke-width: 0.75;"/>
<line x1="59.04" y1="90.05" x2="51.84" y2="90.05" style="stroke-width: 0.75;"/>
<g><text transform="translate(41.76,344.68) rotate(-90.00)" text-anchor="middle" style="font-family: Arial;font-size: 12.00px;" textLength="16.68px" lengthAdjust="spacingAndGlyphs">0.2</text></g>
<g><text transform="translate(41.76,293.75) rotate(-90.00)" text-anchor="middle" style="font-family: Arial;font-size: 12.00px;" textLength="16.68px" lengthAdjust="spacingAndGlyphs">0.3</text></g>
<g><text transform="translate(41.76,242.83) rotate(-90.00)" text-anchor="middle" style="font-family: Arial;font-size: 12.00px;" textLength="16.68px" lengthAdjust="spacingAndGlyphs">0.4</text></g>
<g><text transform="translate(41.76,191.90) rotate(-90.00)" text-anchor="middle" style="font-family: Arial;font-size: 12.00px;" textLength="16.68px" lengthAdjust="spacingAndGlyphs">0.5</text></g>
<g><text transform="translate(41.76,140.97) rotate(-90.00)" text-anchor="middle" style="font-family: Arial;font-size: 12.00px;" textLength="16.68px" lengthAdjust="spacingAndGlyphs">0.6</text></g>
<g><text transform="translate(41.76,90.05) rotate(-90.00)" text-anchor="middle" style="font-family: Arial;font-size: 12.00px;" textLength="16.68px" lengthAdjust="spacingAndGlyphs">0.7</text></g>
<polygon points="59.04,363.56 571.76,363.56 571.76,59.04 59.04,59.04" style="stroke-width: 0.75;" />
<g><text x="315.40" y="418.28" text-anchor="middle" style="font-family: Arial;font-size: 12.00px;" textLength="30.69px" lengthAdjust="spacingAndGlyphs">Noise</text></g>
<g><text transform="translate(12.96,211.30) rotate(-90.00)" text-anchor="middle" style="font-family: Arial;font-size: 12.00px;" textLength="20.01px" lengthAdjust="spacingAndGlyphs">ARI</text></g>
</g><g clip-path="url(#c3)">
<line x1="82.90" y1="81.46" x2="88.99" y2="88.09" style="stroke-width: 0.75;stroke: #FF0000;"/>
<line x1="100.45" y1="96.29" x2="150.56" y2="118.31" style="stroke-width: 0.75;stroke: #FF0000;"/>
<line x1="162.33" y1="126.21" x2="231.10" y2="192.82" style="stroke-width: 0.75;stroke: #FF0000;"/>
<line x1="242.75" y1="200.98" x2="546.30" y2="349.12" style="stroke-width: 0.75;stroke: #FF0000;"/>
<circle cx="78.03" cy="76.15" r="2.70" style="stroke-width: 0.75;stroke: none;fill: #FF0000;"/>
<circle cx="93.85" cy="93.39" r="2.70" style="stroke-width: 0.75;stroke: none;fill: #FF0000;"/>
<circle cx="157.15" cy="121.21" r="2.70" style="stroke-width: 0.75;stroke: none;fill: #FF0000;"/>
<circle cx="236.28" cy="197.82" r="2.70" style="stroke-width: 0.75;stroke: none;fill: #FF0000;"/>
<circle cx="552.77" cy="352.28" r="2.70" style="stroke-width: 0.75;stroke: none;fill: #FF0000;"/>
<line x1="84.78" y1="72.81" x2="87.10" y2="73.67" style="stroke-width: 0.75;stroke: #00FF00;"/>
<line x1="99.25" y1="80.92" x2="151.75" y2="127.25" style="stroke-width: 0.75;stroke: #00FF00;"/>
<line x1="162.85" y1="136.41" x2="230.57" y2="188.64" style="stroke-width: 0.75;stroke: #00FF00;"/>
<line x1="242.71" y1="196.27" x2="546.34" y2="349.05" style="stroke-width: 0.75;stroke: #00FF00;"/>
<circle cx="78.03" cy="70.32" r="2.70" style="stroke-width: 0.75;stroke: none;fill: #00FF00;"/>
<circle cx="93.85" cy="76.16" r="2.70" style="stroke-width: 0.75;stroke: none;fill: #00FF00;"/>
<circle cx="157.15" cy="132.02" r="2.70" style="stroke-width: 0.75;stroke: none;fill: #00FF00;"/>
<circle cx="236.28" cy="193.04" r="2.70" style="stroke-width: 0.75;stroke: none;fill: #00FF00;"/>
<circle cx="552.77" cy="352.28" r="2.70" style="stroke-width: 0.75;stroke: none;fill: #00FF00;"/>
<rect x="485.82" y="59.04" width="85.94" height="57.60" style="stroke-width: 0.75;fill: #FFFFFF;"/>
<line x1="496.62" y1="73.44" x2="518.22" y2="73.44" style="stroke-width: 0.75;stroke: #0000FF;"/>
<line x1="496.62" y1="87.84" x2="518.22" y2="87.84" style="stroke-width: 0.75;stroke: #FF0000;"/>
<line x1="496.62" y1="102.24" x2="518.22" y2="102.24" style="stroke-width: 0.75;stroke: #00FF00;"/>
<g><text x="529.02" y="77.74" style="font-family: Arial;font-size: 12.00px;" textLength="23.34px" lengthAdjust="spacingAndGlyphs">MtM</text></g>
<g><text x="529.02" y="92.14" style="font-family: Arial;font-size: 12.00px;" textLength="28.67px" lengthAdjust="spacingAndGlyphs">MNM</text></g>
<g><text x="529.02" y="106.54" style="font-family: Arial;font-size: 12.00px;" textLength="37.34px" lengthAdjust="spacingAndGlyphs">MCNM</text></g>
</g>
</svg>